<svg width="215" height="34" viewBox="0 0 215 34" fill="none" xmlns="http://www.w3.org/2000/svg">
<path d="M0.536468 27V0.971998H18.4105L18.3925 5.4H5.81047V11.718H16.7365V16.056H5.77447V22.518L18.5905 22.536V27H0.536468ZM22.5831 27V8.388H27.7491V11.016C28.0371 10.56 28.4091 10.122 28.8651 9.702C29.3331 9.27 29.9211 8.916 30.6291 8.64C31.3371 8.364 32.1771 8.226 33.1491 8.226C34.2891 8.226 35.3511 8.448 36.3351 8.892C37.3311 9.336 38.1351 10.038 38.7471 10.998C39.3591 11.946 39.6651 13.188 39.6651 14.724V27H34.4091V15.372C34.4091 14.364 34.1091 13.608 33.5091 13.104C32.9091 12.6 32.1771 12.348 31.3131 12.348C30.7371 12.348 30.1791 12.45 29.6391 12.654C29.1111 12.858 28.6791 13.164 28.3431 13.572C28.0071 13.98 27.8391 14.484 27.8391 15.084V27H22.5831ZM49.9349 27.324C48.5669 27.324 47.4809 27.162 46.6769 26.838C45.8729 26.514 45.2789 26.088 44.8949 25.56C44.5109 25.02 44.2649 24.426 44.1569 23.778C44.0489 23.118 43.9949 22.452 43.9949 21.78V0.251999H49.1429V21.132C49.1429 21.816 49.2869 22.374 49.5749 22.806C49.8749 23.226 50.4329 23.484 51.2489 23.58L52.1309 23.634V26.874C51.7709 26.994 51.4049 27.096 51.0329 27.18C50.6609 27.276 50.2949 27.324 49.9349 27.324ZM60.9253 8.388V27H55.9033V8.388H60.9253ZM60.9793 0.989999V5.724H55.8673V0.989999H60.9793ZM74.2414 33.156C70.9294 33.156 68.4094 32.736 66.6814 31.896C64.9654 31.056 64.1074 29.952 64.1074 28.584C64.1074 27.948 64.2754 27.414 64.6114 26.982C64.9474 26.55 65.3374 26.208 65.7814 25.956C66.2374 25.692 66.6514 25.494 67.0234 25.362C67.4074 25.218 67.6414 25.122 67.7254 25.074C67.5334 24.966 67.2574 24.81 66.8974 24.606C66.5374 24.39 66.2014 24.102 65.8894 23.742C65.5894 23.37 65.4394 22.89 65.4394 22.302C65.4394 21.642 65.7514 21.03 66.3754 20.466C67.0114 19.902 67.9714 19.512 69.2554 19.296C68.0314 18.72 67.1014 17.94 66.4654 16.956C65.8294 15.972 65.5114 14.964 65.5114 13.932C65.5114 12.708 65.8954 11.658 66.6634 10.782C67.4314 9.906 68.4754 9.24 69.7954 8.784C71.1274 8.328 72.6334 8.1 74.3134 8.1C75.5974 8.1 76.6474 8.238 77.4634 8.514C78.2794 8.778 79.0354 9.126 79.7314 9.558C80.0074 9.45 80.3734 9.312 80.8294 9.144C81.2854 8.964 81.7774 8.772 82.3054 8.568C82.8334 8.352 83.3494 8.142 83.8534 7.938C84.3574 7.722 84.8074 7.53 85.2034 7.362L85.1854 11.43L81.9634 11.952C82.0954 12.276 82.1974 12.624 82.2694 12.996C82.3414 13.368 82.3774 13.674 82.3774 13.914C82.3774 14.994 82.0594 16.002 81.4234 16.938C80.7994 17.874 79.8574 18.63 78.5974 19.206C77.3494 19.782 75.8014 20.07 73.9534 20.07C73.7254 20.07 73.4194 20.064 73.0354 20.052C72.6634 20.04 72.3574 20.022 72.1174 19.998C71.4094 20.034 70.9234 20.124 70.6594 20.268C70.3954 20.412 70.2634 20.58 70.2634 20.772C70.2634 21.06 70.5334 21.252 71.0734 21.348C71.6134 21.432 72.4294 21.51 73.5214 21.582C73.9054 21.606 74.4394 21.636 75.1234 21.672C75.8074 21.708 76.5634 21.756 77.3914 21.816C79.6714 21.972 81.3694 22.536 82.4854 23.508C83.6134 24.468 84.1774 25.68 84.1774 27.144C84.1774 28.884 83.3494 30.318 81.6934 31.446C80.0494 32.586 77.5654 33.156 74.2414 33.156ZM75.0874 30.222C76.5514 30.222 77.5954 30.042 78.2194 29.682C78.8434 29.322 79.1554 28.806 79.1554 28.134C79.1554 27.57 78.9154 27.114 78.4354 26.766C77.9554 26.406 77.2534 26.196 76.3294 26.136L72.0634 25.848C71.5114 25.824 71.0194 25.908 70.5874 26.1C70.1674 26.292 69.8374 26.556 69.5974 26.892C69.3694 27.228 69.2554 27.588 69.2554 27.972C69.2554 28.752 69.7294 29.322 70.6774 29.682C71.6254 30.042 73.0954 30.222 75.0874 30.222ZM74.0974 17.136C75.0934 17.136 75.8914 16.866 76.4914 16.326C77.1034 15.774 77.4094 15.03 77.4094 14.094C77.4094 13.122 77.1034 12.342 76.4914 11.754C75.8914 11.166 75.0934 10.872 74.0974 10.872C73.1134 10.872 72.3094 11.166 71.6854 11.754C71.0734 12.342 70.7674 13.122 70.7674 14.094C70.7674 15.018 71.0614 15.756 71.6494 16.308C72.2494 16.86 73.0654 17.136 74.0974 17.136ZM88.2969 27V0.251999H93.5169V11.07C93.8169 10.638 94.1949 10.212 94.6509 9.792C95.1069 9.36 95.6769 9 96.3609 8.712C97.0449 8.424 97.8789 8.28 98.8629 8.28C100.051 8.28 101.131 8.514 102.103 8.982C103.087 9.438 103.873 10.104 104.461 10.98C105.061 11.856 105.361 12.924 105.361 14.184V27H100.087V14.958C100.087 14.118 99.7809 13.476 99.1689 13.032C98.5689 12.576 97.8369 12.348 96.9729 12.348C96.4089 12.348 95.8629 12.45 95.3349 12.654C94.8069 12.858 94.3749 13.17 94.0389 13.59C93.7149 13.998 93.5529 14.508 93.5529 15.12V27H88.2969ZM120.24 12.042H116.1L116.136 21.96C116.136 22.416 116.19 22.758 116.298 22.986C116.418 23.202 116.598 23.346 116.838 23.418C117.09 23.478 117.408 23.508 117.792 23.508H120.294V26.748C120.054 26.856 119.676 26.958 119.16 27.054C118.656 27.15 117.948 27.198 117.036 27.198C115.404 27.198 114.138 26.988 113.238 26.568C112.35 26.148 111.732 25.56 111.384 24.804C111.036 24.048 110.862 23.172 110.862 22.176V12.042H107.838V8.388H111.042L112.356 2.772H116.1V8.37H120.24V12.042ZM127.917 18.9C127.905 19.848 128.055 20.676 128.367 21.384C128.679 22.08 129.129 22.62 129.717 23.004C130.317 23.376 131.037 23.562 131.877 23.562C132.777 23.562 133.563 23.37 134.235 22.986C134.919 22.602 135.393 21.972 135.657 21.096H140.391C140.187 22.416 139.659 23.544 138.807 24.48C137.967 25.416 136.947 26.13 135.747 26.622C134.547 27.114 133.299 27.36 132.003 27.36C130.167 27.36 128.547 26.976 127.143 26.208C125.751 25.428 124.665 24.33 123.885 22.914C123.105 21.498 122.715 19.83 122.715 17.91C122.715 16.05 123.069 14.376 123.777 12.888C124.485 11.388 125.511 10.206 126.855 9.342C128.211 8.466 129.837 8.028 131.733 8.028C133.629 8.028 135.219 8.43 136.503 9.234C137.799 10.026 138.771 11.136 139.419 12.564C140.079 13.98 140.409 15.618 140.409 17.478V18.9H127.917ZM127.899 15.768H135.495C135.495 15.024 135.357 14.34 135.081 13.716C134.805 13.092 134.385 12.6 133.821 12.24C133.269 11.88 132.573 11.7 131.733 11.7C130.917 11.7 130.221 11.898 129.645 12.294C129.081 12.678 128.649 13.182 128.349 13.806C128.049 14.43 127.899 15.084 127.899 15.768ZM144.13 27V8.388H149.296V11.016C149.584 10.56 149.956 10.122 150.412 9.702C150.88 9.27 151.468 8.916 152.176 8.64C152.884 8.364 153.724 8.226 154.696 8.226C155.836 8.226 156.898 8.448 157.882 8.892C158.878 9.336 159.682 10.038 160.294 10.998C160.906 11.946 161.212 13.188 161.212 14.724V27H155.956V15.372C155.956 14.364 155.656 13.608 155.056 13.104C154.456 12.6 153.724 12.348 152.86 12.348C152.284 12.348 151.726 12.45 151.186 12.654C150.658 12.858 150.226 13.164 149.89 13.572C149.554 13.98 149.386 14.484 149.386 15.084V27H144.13ZM166.208 27V0.971998H173.84L179.798 19.53L185.81 0.971998H193.424V27H188.114V7.092L181.85 27H177.728L171.5 7.182V27H166.208ZM202.489 18.9C202.477 19.848 202.627 20.676 202.939 21.384C203.251 22.08 203.701 22.62 204.289 23.004C204.889 23.376 205.609 23.562 206.449 23.562C207.349 23.562 208.135 23.37 208.807 22.986C209.491 22.602 209.965 21.972 210.229 21.096H214.963C214.759 22.416 214.231 23.544 213.379 24.48C212.539 25.416 211.519 26.13 210.319 26.622C209.119 27.114 207.871 27.36 206.575 27.36C204.739 27.36 203.119 26.976 201.715 26.208C200.323 25.428 199.237 24.33 198.457 22.914C197.677 21.498 197.287 19.83 197.287 17.91C197.287 16.05 197.641 14.376 198.349 12.888C199.057 11.388 200.083 10.206 201.427 9.342C202.783 8.466 204.409 8.028 206.305 8.028C208.201 8.028 209.791 8.43 211.075 9.234C212.371 10.026 213.343 11.136 213.991 12.564C214.651 13.98 214.981 15.618 214.981 17.478V18.9H202.489ZM202.471 15.768H210.067C210.067 15.024 209.929 14.34 209.653 13.716C209.377 13.092 208.957 12.6 208.393 12.24C207.841 11.88 207.145 11.7 206.305 11.7C205.489 11.7 204.793 11.898 204.217 12.294C203.653 12.678 203.221 13.182 202.921 13.806C202.621 14.43 202.471 15.084 202.471 15.768Z" fill="#FEFFD3"/>
</svg>
